<svg width="216" height="64" viewBox="0 0 216 64" fill="none" xmlns="http://www.w3.org/2000/svg">
<path d="M15.7631 14.7501C16.5803 15.7545 17.3974 16.7527 18.2146 17.7447C17.3964 18.8379 16.5781 19.9311 15.7599 21.0242C15.7599 22.9373 15.7599 24.8455 15.7599 26.749C15.7505 27.6799 15.957 28.5935 16.3535 29.3747C16.8091 30.1945 17.4397 30.5389 18.2451 30.4364C18.2558 31.4325 18.2665 32.4294 18.2772 33.4269C17.8465 33.6072 17.3995 33.7168 16.9471 33.7528C15.639 33.8607 14.332 33.9728 13.026 34.0889L8.29948 34.5132C8.00831 34.5478 7.7158 34.5601 7.42348 34.5501C7.42348 33.554 7.42348 32.5564 7.42348 31.5576C8.78882 31.1312 9.7338 29.7006 9.7354 27.9952C9.7354 25.8225 9.7354 23.6492 9.7354 21.4752C8.82518 20.4175 7.91603 19.3517 7.00795 18.2777C7.91924 17.1312 8.82839 15.995 9.7354 14.869C9.7354 13.0024 9.7354 11.1352 9.7354 9.26724C9.7354 7.47581 9.10488 6.60265 7.87913 6.62519C6.54749 6.64364 5.53031 7.855 4.79389 10.2183C4.25848 12.0183 3.9624 13.9199 3.9179 15.8447C3.151 15.35 2.37982 14.8485 1.60437 14.3402V1.93551C9.01236 1.91365 16.4193 1.89315 23.8251 1.87402C23.8251 5.62768 23.8251 9.38065 23.8251 13.1329C22.9695 13.7342 22.1138 14.3388 21.2581 14.9469C21.0495 12.2823 20.8747 10.5852 20.7351 9.94978C20.2538 7.62339 19.4067 6.43867 18.2499 6.45302C17.0225 6.46737 15.7615 7.81811 15.7599 9.32258C15.7642 11.1345 15.7652 12.9437 15.7631 14.7501Z" fill="#B8A586"/>
<path d="M49.3702 13.8341C50.1756 14.7606 50.981 15.6836 51.7864 16.6033C50.9778 17.5912 50.1703 18.5846 49.3638 19.5835V24.7733C49.3638 27.1304 50.3409 28.3992 52.3046 28.5447C52.3143 29.4425 52.325 30.3416 52.3367 31.2421C48.2124 31.4553 44.088 31.6903 39.9637 31.9472C39.9637 31.0535 39.9637 30.1592 39.9637 29.2642C40.4138 29.2354 40.8537 29.0824 41.2531 28.8156C41.6525 28.5488 42.0019 28.1746 42.2772 27.7187C42.8102 26.856 43.0961 25.7862 43.0874 24.6872C43.1003 22.7332 43.1136 20.7798 43.1275 18.8272C40.5702 18.9269 38.0117 19.0335 35.4522 19.1469C35.4522 21.4316 35.4522 23.7164 35.4522 26.0011C35.4522 28.2557 36.4998 29.3872 38.6385 29.3831C38.6385 30.3054 38.6385 31.2291 38.6385 32.1542C34.4671 32.3674 30.2957 32.6031 26.1243 32.8614C26.1125 31.9267 26.1018 30.9907 26.0922 30.0533C27.0388 29.8627 27.8442 29.4753 28.51 28.8071C29.2817 28.0487 29.6667 27.194 29.6683 26.1548V20.4587C28.7474 19.4585 27.8254 18.4528 26.9024 17.4416C27.8265 16.3334 28.7506 15.232 29.6748 14.1375C29.663 12.2518 29.6528 10.3668 29.6443 8.48242C29.6443 6.19702 28.4554 4.87497 26.527 5.05535C26.5173 4.07696 26.5066 3.09926 26.4949 2.12225L38.7267 2.02591C38.7267 3.03299 38.7267 4.0387 38.7267 5.04305C36.9378 5.17628 35.5003 6.45938 35.4987 8.47422L35.5276 14.9574C38.085 14.8836 40.6434 14.8153 43.203 14.7524C43.203 13.5417 43.203 12.3297 43.203 11.1163C43.2158 10.323 43.227 9.52776 43.2399 8.73248C43.2784 6.39174 42.2628 5.14758 40.2653 4.95696C40.2653 3.94032 40.2653 2.92436 40.2653 1.90908L52.287 1.86194C52.2966 2.89498 52.3073 3.92734 52.3191 4.95901H52.0784C50.2911 4.96926 49.3782 5.89367 49.3766 7.68919C49.3756 9.73614 49.3734 11.7845 49.3702 13.8341Z" fill="#B8A586"/>
<path d="M55.2904 16.5448C56.0969 15.602 56.9039 14.6639 57.7114 13.7306V9.71736C57.7357 8.5829 57.5318 7.45945 57.1194 6.45429C56.5948 5.31672 55.8231 4.81455 54.7722 5.01952C54.7722 4.06301 54.7722 3.10103 54.7722 2.13359C60.3442 2.0885 67.1436 2.0844 75.241 2.07825C75.18 4.38617 75.1196 6.6941 75.0597 9.00202L73.0606 9.71326C72.6082 7.21267 70.3331 5.52579 67.9121 5.53604C66.3077 5.53604 65.1847 6.01566 64.5814 6.95646C64.0552 7.73943 63.7792 9.06762 63.7712 10.9021C63.7712 11.435 63.7712 11.9679 63.7712 12.5008C63.7712 12.384 63.7712 12.6955 63.8049 13.4355V14.1385C64.2439 14.3355 64.7066 14.4326 65.1718 14.4254C66.7538 14.3927 67.5982 13.0959 67.7052 10.5352L70.1599 10.6254C70.2604 13.7573 70.3626 16.8878 70.4663 20.0169L67.6618 20.0825C67.341 19.1581 67.0666 18.5432 66.8228 18.2768C66.4714 17.8668 65.8762 17.6742 65.0339 17.6926C64.5092 17.7049 64.0889 17.9099 63.8418 18.3075C63.8418 21.1545 63.9076 23.0218 64.0825 23.8765C64.5365 26.2418 65.5858 27.3609 67.3041 27.3117C70.9861 27.1846 73.5483 24.766 73.6911 20.7528L76.5309 21.0787C76.317 24.1819 76.103 27.2864 75.8891 30.3924C69.1336 30.5563 62.3786 30.7818 55.6241 31.0688C55.6241 30.0958 55.6241 29.1216 55.6241 28.1459C56.3253 28.1152 56.8868 27.6192 57.2735 26.6189C57.5864 25.8504 57.7457 24.9948 57.7371 24.1286V19.2873C56.9242 18.3772 56.1087 17.4631 55.2904 16.5448Z" fill="#B8A586"/>
<path d="M116.997 15.8744L114.471 18.7768C114.151 21.5357 113.421 23.8006 112.264 25.6494C110.406 28.5539 107.669 29.9825 104.056 29.9968C100.443 30.0112 96.8361 30.046 93.2182 30.0952C92.8973 30.0952 92.586 30.0665 92.2716 30.0337V27.6048C93.8503 27.242 94.9028 25.7601 94.9044 23.9728L94.8707 18.8485L92.2074 15.9503C93.0962 14.9678 93.9845 13.9887 94.8723 13.0131L94.9076 13.05C94.9076 11.7245 94.9076 10.3983 94.9076 9.0715C94.9108 5.89037 94.0348 4.45558 92.2523 4.72614C92.2523 3.79012 92.2523 2.85409 92.2523 1.91806L103.785 1.99185C106.939 1.99185 109.427 3.0167 111.285 5.01515C113.072 6.94186 114.125 9.62696 114.476 13.0684L116.997 15.8744ZM105.426 15.899L108.02 13.0643C107.926 11.6221 107.691 10.2008 107.319 8.83373C106.583 6.07484 105.394 4.71589 103.814 4.71589C101.781 4.71589 100.765 6.07894 100.765 8.76404C100.765 10.1893 100.765 11.6138 100.765 13.0377L103.332 15.8662L100.756 18.8219C100.756 20.1884 100.756 21.55 100.756 22.9069C100.737 23.7618 100.92 24.604 101.282 25.3235C101.465 25.7301 101.733 26.0639 102.055 26.2879C102.378 26.5119 102.743 26.6172 103.109 26.5923C105.776 26.58 107.39 23.9277 107.922 18.6087C107.088 17.7069 106.256 16.8036 105.426 15.899Z" fill="#B8A586"/>
<path d="M120.396 15.9301L122.816 13.2861C122.816 11.9975 122.816 10.7089 122.816 9.42036C122.836 8.32226 122.63 7.23661 122.219 6.27205C121.693 5.17137 120.921 4.67945 119.869 4.86597V2.103C125.442 2.0661 132.24 2.06815 140.337 2.07225C140.281 4.37609 140.224 6.67993 140.167 8.98378L138.168 9.65812C137.711 7.16161 135.431 5.47677 133.013 5.46447C131.409 5.46447 130.286 5.91335 129.683 6.82546C129.158 7.58384 128.88 8.87514 128.88 10.6645C128.88 11.1831 128.88 11.7037 128.88 12.2223C128.88 12.1095 128.88 12.4129 128.916 13.1364V13.821C129.352 14.0238 129.812 14.1306 130.276 14.1367C131.855 14.1503 132.696 12.8993 132.798 10.3837L135.253 10.5169C135.36 13.6133 135.467 16.7104 135.574 19.8081L132.77 19.7671C132.449 18.8468 132.173 18.234 131.927 17.9634C131.576 17.5391 130.981 17.3485 130.138 17.3342C129.612 17.3342 129.192 17.5125 128.946 17.8917C128.946 20.667 129.02 22.4953 129.195 23.3336C129.652 25.66 130.705 26.8181 132.423 26.8549C136.113 26.9287 138.664 24.6577 138.8 20.667L141.642 21.1076C141.433 24.2054 141.225 27.3011 141.018 30.3947C134.262 30.1556 127.505 29.9787 120.746 29.8639C120.746 28.9292 120.746 27.9953 120.746 27.062C121.447 27.062 122.009 26.6213 122.394 25.6764C122.706 24.9471 122.864 24.1258 122.85 23.2946C122.85 21.7383 122.85 20.1839 122.85 18.6316C122.034 17.7284 121.216 16.8279 120.396 15.9301Z" fill="#B8A586"/>
<path d="M166.779 16.6455C165.564 17.6239 164.349 18.5954 163.135 19.5602C161.316 21.8025 159.003 22.8602 156.198 22.772C155.115 22.756 154.049 22.4304 153.078 21.8189C153.078 22.9886 153.078 24.1583 153.078 25.328C153.078 27.1604 154.342 28.1033 156.025 27.9742V30.8724C152.067 30.7358 148.105 30.6237 144.138 30.5363C144.138 29.7 144.138 28.8644 144.138 28.0295C145.646 28.0766 146.801 27.0682 146.8 25.4817C146.787 23.3938 146.773 21.3051 146.76 19.2158C145.871 18.2033 144.982 17.1955 144.093 16.1925C144.98 15.2168 145.867 14.2391 146.755 13.2594L146.79 13.2983V8.58403C146.79 6.68806 145.875 5.29222 144.194 5.32297C144.194 4.16694 144.194 3.01023 144.194 1.85283C144.65 1.89178 146.227 1.89178 148.996 1.85283C151.765 1.81389 154.148 1.81594 156.147 1.81594C158.845 1.81594 161.054 2.83259 162.773 4.86588C164.528 6.89508 165.407 9.41416 165.41 12.4764C165.417 12.8609 165.405 13.2455 165.377 13.6283C165.843 14.6313 166.311 15.637 166.779 16.6455ZM158.707 7.75391C158.075 6.17427 157.268 5.38309 156.286 5.38036C154.464 5.37011 152.917 6.88278 152.917 8.86484C152.907 11.8806 152.898 14.895 152.89 17.9081C153.49 18.2786 154.149 18.4679 154.815 18.4615C156.428 18.5005 157.655 17.7892 158.459 16.3134C159.124 15.1103 159.473 13.5033 159.471 11.5725C159.461 10.2395 159.199 8.9294 158.707 7.75391Z" fill="#B8A586"/>
<path d="M194.253 17.5671C193.413 18.6179 192.573 19.6633 191.732 20.7032C191.389 23.5593 190.447 26.2432 189.005 28.4695C186.871 31.749 184.07 33.2371 180.672 33.0055C177.378 32.7821 174.642 30.9394 172.5 27.5287C170.992 25.1162 170.043 22.4741 169.688 19.5758C168.882 18.6193 168.075 17.6628 167.267 16.7063C168.097 15.7716 168.926 14.8328 169.754 13.89C170.136 11.1741 171.079 8.74521 172.515 6.54178C174.684 3.26225 177.488 1.58765 180.887 1.58765C184.216 1.58765 186.916 3.27045 189.022 6.7119C190.394 8.91963 191.312 11.5311 191.69 14.3081C192.545 15.389 193.399 16.4753 194.253 17.5671ZM181.989 17.1572C182.852 16.1733 183.716 15.184 184.58 14.1892C184.477 13.0604 184.324 11.9401 184.121 10.8339C183.452 7.26942 182.356 5.49233 180.891 5.48003C178.543 5.46363 177.144 8.30657 176.659 13.9371C177.502 14.9606 178.344 15.9895 179.186 17.024C178.33 18.057 177.478 19.086 176.63 20.1108C176.782 21.6692 177.05 23.2054 177.432 24.698C178.235 27.8689 179.399 29.4903 180.906 29.5825C183.255 29.7301 184.512 26.674 184.718 20.3937L184.647 20.4326C183.764 19.3326 182.878 18.2401 181.989 17.1551V17.1572Z" fill="#B8A586"/>
<path d="M207.354 14.9691C208.172 16.0486 208.99 17.1363 209.807 18.2322C208.99 19.2816 208.173 20.3236 207.357 21.358V27.1791C207.354 28.151 207.56 29.1053 207.953 29.938C208.145 30.3603 208.421 30.7106 208.753 30.9538C209.085 31.1969 209.461 31.3244 209.844 31.3236C209.855 32.3525 209.867 33.3815 209.879 34.4104C209.442 34.5202 208.994 34.5533 208.549 34.5088C207.243 34.3886 205.936 34.2704 204.628 34.1542C203.053 34.0176 201.477 33.8809 199.902 33.7443C199.608 33.7261 199.316 33.6878 199.026 33.6295C199.026 32.6607 199.026 31.6905 199.026 30.7189C200.391 30.5242 201.336 29.2616 201.336 27.5809C201.336 25.4423 201.336 23.3038 201.336 21.1653C200.425 20.0284 199.513 18.899 198.601 17.7772C199.512 16.7455 200.421 15.7077 201.328 14.6637C201.328 12.8272 201.328 10.9899 201.328 9.15205C201.328 7.38726 200.694 6.51819 199.469 6.5018C198.137 6.4854 197.121 7.62708 196.387 9.86534C195.853 11.5624 195.557 13.3664 195.514 15.1945C194.744 14.6603 193.972 14.128 193.2 13.5978C193.2 9.70615 193.2 5.81173 193.2 1.91458L215.421 1.88998V13.8458C214.565 14.428 213.713 15.0053 212.864 15.5778C212.653 12.7698 212.478 10.9886 212.337 10.3204C211.846 7.86074 211.006 6.61658 209.849 6.60018C208.623 6.58583 207.362 7.92633 207.362 9.45541C207.358 11.2919 207.355 13.1298 207.354 14.9691Z" fill="#B8A586"/>
<path d="M14.1523 13.1586C14.9705 14.1629 15.7877 15.1611 16.6038 16.1532C15.7855 17.2464 14.9673 18.343 14.1491 19.443V25.1678C14.1401 26.0989 14.3472 27.0125 14.7443 27.7934C15.1983 28.6133 15.8288 28.9576 16.6342 28.8531C16.646 29.852 16.6567 30.8495 16.6663 31.8457C16.2344 32.0242 15.7863 32.1317 15.3331 32.1654C14.026 32.2761 12.719 32.3888 11.412 32.5036C9.83647 32.6403 8.26097 32.7817 6.68546 32.9279C6.39425 32.9614 6.10178 32.9737 5.80947 32.9648C5.80947 31.9673 5.80947 30.9691 5.80947 29.9702C7.1748 29.5459 8.11978 28.1132 8.12139 26.4078C8.12139 24.2351 8.12139 22.0625 8.12139 19.8898C7.21117 18.8308 6.30202 17.7643 5.39393 16.6902C6.30522 15.5465 7.21437 14.4103 8.12139 13.2816C8.12139 11.4164 8.12139 9.54977 8.12139 7.68181C8.12139 5.88833 7.49086 5.01721 6.26511 5.03976C4.93348 5.05615 3.9163 6.26957 3.17989 8.63287C2.64509 10.4331 2.34903 12.3346 2.30389 14.2593C1.53914 13.7619 0.771173 13.2577 0 12.7466V0.343906L22.2207 0.280365C22.2207 4.03267 22.218 7.78566 22.2127 11.5393C21.357 12.1406 20.504 12.7452 19.6537 13.3533C19.4451 10.6887 19.2718 8.99157 19.1307 8.35616C18.6493 6.03181 17.8022 4.84708 16.6455 4.86143C15.4181 4.87373 14.1571 6.22448 14.1555 7.731C14.1555 9.5361 14.1544 11.3453 14.1523 13.1586Z" fill="white"/>
<path d="M47.7594 12.2407C48.5648 13.1686 49.3702 14.0923 50.1756 15.012C49.3681 15.9999 48.5606 16.9927 47.753 17.9902V23.18C47.753 25.5372 48.7301 26.806 50.6939 26.9515C50.7035 27.8506 50.7142 28.7505 50.726 29.651C46.6016 29.8614 42.4773 30.0964 38.3529 30.3561C38.3529 29.461 38.3529 28.5667 38.3529 27.673C38.8032 27.6441 39.2432 27.4908 39.6426 27.2236C40.0421 26.9565 40.3914 26.5818 40.6665 26.1255C41.1968 25.2615 41.4799 24.1918 41.4686 23.0939C41.4815 21.1399 41.4949 19.1872 41.5088 17.2359C38.9514 17.337 36.3934 17.4429 33.835 17.5536C33.835 19.8397 33.835 22.1251 33.835 24.4099C33.835 26.6645 34.881 27.7939 37.0197 27.7898C37.0197 28.7136 37.0197 29.638 37.0197 30.5631C32.8483 30.7762 28.6769 31.012 24.5055 31.2702C24.4959 30.3342 24.4852 29.3982 24.4734 28.4621C25.42 28.2715 26.2254 27.8821 26.8912 27.2139C27.6629 26.4555 28.0496 25.6028 28.0496 24.5636V18.8654C27.1286 17.8665 26.2072 16.8615 25.2852 15.8503C26.2083 14.7393 27.1319 13.6373 28.056 12.5441C28.0453 10.6597 28.0351 8.77469 28.0255 6.88896C28.0255 4.60354 26.8366 3.28148 24.9098 3.4639L24.8841 0.530775L37.1176 0.434438C37.1176 1.43879 37.1176 2.44383 37.1176 3.44956C35.3287 3.58279 33.8911 4.86795 33.8895 6.88077L33.9184 13.366C36.4758 13.2895 39.0343 13.2212 41.5938 13.1611C41.5938 11.9504 41.5938 10.739 41.5938 9.52694C41.6066 8.73165 41.6189 7.93705 41.6307 7.14313C41.6692 4.80031 40.6536 3.55614 38.6562 3.36552C38.6626 2.34203 38.6658 1.32401 38.6658 0.311456L50.6874 0.264313C50.6992 1.29463 50.7099 2.327 50.7195 3.36142H50.4741C48.6868 3.36142 47.7739 4.29404 47.7723 6.09163C47.7659 8.1427 47.7616 10.1924 47.7594 12.2407Z" fill="white"/>
<path d="M53.6796 14.9554C54.4871 14.0139 55.2946 13.0765 56.1022 12.1432C56.1022 10.804 56.1022 9.46558 56.1022 8.12781C56.1269 6.99352 55.9236 5.87006 55.5118 4.86469C54.9871 3.72711 54.2154 3.22493 53.1646 3.4299C53.1646 2.47338 53.1646 1.5107 53.1646 0.541879C58.7366 0.496785 65.5376 0.492686 73.6333 0.488586C73.5724 2.79655 73.5119 5.10451 73.452 7.41247L71.4594 8.11346C71.0053 5.61488 68.7319 3.92593 66.3093 3.93618C64.6969 3.93618 63.5818 4.41786 62.9786 5.35662C62.4524 6.1396 62.1764 7.46986 62.1684 9.30229C62.1684 9.83521 62.1684 10.3681 62.1684 10.9011C62.1684 10.7842 62.1684 11.106 62.2021 11.8378V12.5388C62.6408 12.7374 63.1036 12.8353 63.569 12.8278C65.1467 12.7991 65.989 11.5009 66.0959 8.93334L68.5506 9.02148C68.6576 12.1534 68.7597 15.284 68.8571 18.4132L66.0526 18.4788C65.7317 17.5544 65.4574 16.9395 65.2135 16.673C64.8621 16.2631 64.2669 16.0724 63.4262 16.0909C62.9 16.0909 62.4796 16.2959 62.2326 16.7058C62.2326 19.5528 62.2983 21.4201 62.4732 22.2748C62.9273 24.6402 63.9781 25.7593 65.6948 25.7122C69.3849 25.5851 71.9391 23.1644 72.0819 19.1531L74.9249 19.4913C74.7109 22.5918 74.497 25.6965 74.2831 28.8052C67.5265 28.9678 60.7715 29.1932 54.0181 29.4816C54.0181 28.5059 54.0181 27.5316 54.0181 26.5587C54.7208 26.528 55.2807 26.0299 55.6674 25.0296C55.9803 24.2569 56.138 23.3969 56.1262 22.5269V17.6856C55.3134 16.7823 54.4978 15.8723 53.6796 14.9554Z" fill="white"/>
<path d="M115.386 14.2827L112.861 17.185C112.54 19.9439 111.81 22.2088 110.653 24.0556C108.795 26.96 106.058 28.3907 102.445 28.405C98.8319 28.4193 95.2252 28.4521 91.6073 28.5034C91.2864 28.5034 90.9752 28.4747 90.6607 28.4419V26.0151C92.2394 25.6523 93.2919 24.1704 93.2935 22.381L93.2598 17.2568L90.5966 14.3565L93.2614 11.4193L93.2967 11.4582C93.2967 10.1314 93.2967 8.80522 93.2967 7.47976C93.2967 4.2966 92.4223 2.85772 90.6351 3.12418V0.326355L102.169 0.393995C105.323 0.393995 107.815 1.41884 109.669 3.42343C111.457 5.35013 112.509 8.03522 112.861 11.4766L115.386 14.2827ZM103.815 14.3052L106.409 11.4623C106.315 10.0195 106.08 8.59754 105.708 7.2297C104.972 4.47287 103.783 3.11188 102.203 3.11188C100.17 3.11188 99.1543 4.47697 99.1543 7.16206C99.1543 8.58591 99.1543 10.0104 99.1543 11.4357L101.721 14.2642L99.1511 17.2301C99.1511 18.5966 99.1511 19.9576 99.1511 21.3131C99.1325 22.1685 99.3158 23.0113 99.6774 23.7317C99.8593 24.1386 100.126 24.4732 100.448 24.6983C100.769 24.9233 101.134 25.03 101.5 25.0066C104.166 25.0066 105.779 22.342 106.313 17.0231L103.815 14.3052Z" fill="white"/>
<path d="M118.786 14.3284L121.205 11.6904C121.205 10.4019 121.205 9.11258 121.205 7.82263C121.226 6.72507 121.02 5.63981 120.608 4.67633C120.082 3.57564 119.31 3.08166 118.258 3.27023V0.511321C123.831 0.474427 130.631 0.476476 138.726 0.480576C138.671 2.78445 138.614 5.08764 138.556 7.39015L136.559 8.06655C136.1 5.57 133.82 3.87489 131.399 3.87489C129.795 3.87489 128.672 4.32583 128.07 5.2359C127.544 5.99634 127.268 7.28561 127.268 9.07501C127.268 9.59563 127.268 10.1142 127.268 10.6348C127.268 10.5201 127.268 10.8255 127.303 11.547V12.2316C127.742 12.4346 128.205 12.5407 128.672 12.5452C130.25 12.5602 131.091 11.3092 131.194 8.79215L133.649 8.92333C133.753 12.0211 133.859 15.121 133.966 18.2229L131.162 18.1798C130.841 17.2595 130.565 16.6466 130.319 16.3761C129.968 15.9538 129.373 15.7612 128.531 15.7468C128.004 15.7468 127.584 15.9272 127.339 16.3043C127.339 19.0817 127.412 20.908 127.587 21.7484C128.044 24.0748 129.097 25.2329 130.815 25.2677C134.505 25.3415 137.056 23.0704 137.193 19.0817L140.034 19.5203C139.82 22.6195 139.612 25.7152 139.41 28.8076C132.657 28.563 125.9 28.3826 119.142 28.2664C119.142 27.3318 119.142 26.3971 119.142 25.4624C119.843 25.4624 120.404 25.0217 120.789 24.0789C121.1 23.3523 121.256 22.5349 121.243 21.7074C121.243 20.1537 121.243 18.5993 121.243 17.0443C120.42 16.1383 119.601 15.233 118.786 14.3284Z" fill="white"/>
<path d="M165.168 15.0072C163.953 15.9828 162.739 16.9544 161.525 17.9218C159.705 20.1642 157.392 21.2218 154.587 21.1316C153.504 21.117 152.438 20.7912 151.467 20.1785C151.467 21.3496 151.467 22.52 151.467 23.6897C151.467 25.52 152.731 26.4649 154.414 26.3358V29.2341C150.456 29.0974 146.494 28.9847 142.527 28.8959C142.527 28.061 142.527 27.2261 142.527 26.3911C144.035 26.4362 145.192 25.4298 145.19 23.8434C145.176 21.7554 145.163 19.6661 145.149 17.5754C144.26 16.5643 143.371 15.5565 142.482 14.5522C143.369 13.5792 144.256 12.6022 145.144 11.6211L145.179 11.66V6.94577C145.179 5.04776 144.266 3.65192 142.583 3.68471C142.583 2.52596 142.583 1.36925 142.583 0.214594C143.039 0.253538 144.616 0.253538 147.385 0.214594C150.154 0.17565 152.537 0.1777 154.536 0.17975C157.234 0.17975 159.443 1.19639 161.162 3.22968C162.917 5.25682 163.796 7.77589 163.8 10.8381C163.806 11.2233 163.795 11.6086 163.766 11.9921C164.232 12.9923 164.7 13.9974 165.168 15.0072ZM157.096 6.11359C156.464 4.53533 155.657 3.74416 154.675 3.74006C152.853 3.74006 151.306 5.24453 151.306 7.22452C151.298 10.2444 151.293 13.2615 151.293 16.2759C151.894 16.6452 152.552 16.8345 153.219 16.8294C154.823 16.8683 156.057 16.1571 156.862 14.6813C157.526 13.4781 157.875 11.8691 157.873 9.94036C157.861 8.60319 157.594 7.28984 157.096 6.11359Z" fill="white"/>
<path d="M192.642 15.9794C191.802 17.0329 190.962 18.0789 190.123 19.1175C189.779 21.9728 188.837 24.6559 187.395 26.8817C185.261 30.1714 182.46 31.6513 179.062 31.4197C175.768 31.1942 173.033 29.3516 170.891 25.9429C169.383 23.5304 168.433 20.8863 168.08 17.9901C167.273 17.0336 166.465 16.0771 165.657 15.1206C166.487 14.1859 167.316 13.2471 168.144 12.3043C168.526 9.58845 169.471 7.15752 170.905 4.95615C173.075 1.67665 175.879 0.00204969 179.277 0C182.606 0 185.306 1.68484 187.413 5.13447C188.784 7.34297 189.702 9.95405 190.083 12.7306C190.934 13.8033 191.787 14.8862 192.642 15.9794ZM180.378 15.5694C181.241 14.5856 182.105 13.5963 182.969 12.6015C182.867 11.4719 182.714 10.3508 182.51 9.2441C181.841 5.67969 180.745 3.90261 179.28 3.89236C176.931 3.87596 175.532 6.71683 175.048 12.3473C175.891 13.3694 176.733 14.3984 177.575 15.4342C176.719 16.4686 175.867 17.4975 175.019 18.521C175.171 20.0793 175.44 21.6154 175.821 23.1082C176.623 26.2791 177.788 27.9004 179.295 27.9926C181.644 28.1402 182.901 25.0862 183.107 18.8059L183.036 18.8448C182.153 17.7421 181.267 16.6503 180.378 15.5694Z" fill="white"/>
<path d="M205.743 13.3755C206.561 14.455 207.379 15.5433 208.196 16.6406C207.376 17.6901 206.559 18.7313 205.746 19.7644V25.5855C205.743 26.558 205.949 27.513 206.342 28.3464C206.534 28.7688 206.81 29.119 207.142 29.3618C207.474 29.6047 207.851 29.7316 208.233 29.73C208.244 30.7589 208.256 31.7885 208.269 32.8189C207.831 32.9289 207.383 32.9613 206.939 32.9152C205.633 32.7936 204.326 32.6761 203.017 32.5626C201.442 32.426 199.866 32.2894 198.291 32.1527C197.997 32.1338 197.705 32.0948 197.415 32.0359C197.415 31.0671 197.415 30.0975 197.415 29.1274C198.78 28.9326 199.725 27.668 199.725 25.9872C199.725 23.8487 199.725 21.7109 199.725 19.5737C198.814 18.4341 197.905 17.3047 196.998 16.1856C197.909 15.1539 198.818 14.1161 199.725 13.0721C199.725 11.2342 199.725 9.397 199.725 7.56047C199.725 5.79363 199.093 4.92456 197.866 4.91021C196.534 4.89382 195.518 6.0355 194.784 8.27171C194.25 9.96869 193.955 11.7728 193.913 13.6009C193.141 13.0666 192.37 12.5351 191.597 12.0063C191.597 8.11184 191.595 4.21742 191.589 0.322997L213.81 0.298401V12.2543C212.954 12.8337 212.102 13.411 211.253 13.9863C211.043 11.1761 210.868 9.397 210.728 8.72675C210.237 6.26711 209.395 5.025 208.238 5.0086C207.012 4.99425 205.751 6.3327 205.751 7.86177C205.747 9.70103 205.744 11.5389 205.743 13.3755Z" fill="white"/>
<path d="M50.8652 48.025L49.998 48.1598L51.0938 52.859L51.252 53.9254L51.2871 53.9312L51.5156 52.859L53.0859 47.2809H54.1055L55.6816 52.859L55.916 53.9547H55.9512L56.1211 52.859L57.1934 48.1598L56.3203 48.025V47.2809H59.0332V48.025L58.3477 48.1129L56.4902 55.8121H55.459L53.7715 49.8941L53.6191 49.1266H53.584L53.4375 49.8941L51.7266 55.8121H50.7012L48.8438 48.1129L48.1582 48.025V47.2809H50.8652V48.025ZM60.2016 48.025V47.2809H63.266V48.025L62.3109 48.1891V54.9098L63.266 55.0738V55.8121H60.2016V55.0738L61.1566 54.9098V48.1891L60.2016 48.025ZM73.0418 47.2809V48.025L72.0867 48.1891V55.8121H70.9324L66.8309 49.2262L66.7957 49.2379V54.9098L67.7508 55.0738V55.8121H64.6863V55.0738L65.6414 54.9098V48.1891L64.6863 48.025V47.2809H65.6414H66.7957L70.8973 53.8609L70.9324 53.8492V48.1891L69.9773 48.025V47.2809H72.0867H73.0418ZM74.427 55.8121V55.0738L75.382 54.9098V48.1891L74.427 48.025V47.2809H80.9777V49.3316H79.9875L79.8937 48.1891H76.5363V50.9488H79.8V51.857H76.5363V54.9098H79.9641L80.0578 53.7672H81.0422V55.8121H74.427ZM86.1738 55.0738L86.8066 54.9859L89.7891 47.2809H90.7793L93.709 54.9859L94.3359 55.0738V55.8121H91.8867V55.0738L92.5312 54.9625L91.9688 53.3922H88.5527L87.9727 54.9625L88.6172 55.0738V55.8121H86.1738V55.0738ZM88.9102 52.4254H91.6172L90.293 48.7633H90.2578L88.9102 52.4254ZM104.012 47.2809V48.025L103.057 48.1891V55.8121H101.903L97.8012 49.2262L97.766 49.2379V54.9098L98.7211 55.0738V55.8121H95.6566V55.0738L96.6117 54.9098V48.1891L95.6566 48.025V47.2809H96.6117H97.766L101.868 53.8609L101.903 53.8492V48.1891L100.948 48.025V47.2809H103.057H104.012ZM108.971 47.2809C110.085 47.2809 110.979 47.6246 111.655 48.3121C112.335 48.9957 112.675 49.8805 112.675 50.9664V52.1324C112.675 53.2223 112.335 54.109 111.655 54.7926C110.979 55.4723 110.085 55.8121 108.971 55.8121H105.397V55.0738L106.352 54.9098V48.1891L105.397 48.025V47.2809H106.352H108.971ZM107.507 48.1891V54.9098H108.971C109.761 54.9098 110.382 54.65 110.835 54.1305C111.292 53.6109 111.52 52.9449 111.52 52.1324V50.9547C111.52 50.15 111.292 49.4879 110.835 48.9684C110.382 48.4488 109.761 48.1891 108.971 48.1891H107.507ZM124.082 49.8004H123.209L122.992 48.5816C122.816 48.4332 122.582 48.3102 122.289 48.2125C121.996 48.1148 121.656 48.066 121.269 48.066C120.656 48.066 120.185 48.1969 119.857 48.4586C119.529 48.7164 119.365 49.0543 119.365 49.4723C119.365 49.8434 119.531 50.1539 119.863 50.4039C120.199 50.65 120.74 50.8668 121.486 51.0543C122.384 51.2769 123.066 51.6051 123.531 52.0387C124 52.4723 124.234 53.0094 124.234 53.65C124.234 54.3375 123.953 54.8902 123.39 55.3082C122.832 55.7262 122.099 55.9352 121.193 55.9352C120.537 55.9352 119.953 55.8277 119.441 55.6129C118.933 55.398 118.519 55.1168 118.199 54.7691V53.1812H119.066L119.289 54.4059C119.511 54.5894 119.777 54.7398 120.086 54.857C120.394 54.9742 120.763 55.0328 121.193 55.0328C121.775 55.0328 122.234 54.9098 122.57 54.6637C122.91 54.4176 123.08 54.0836 123.08 53.6617C123.08 53.2711 122.933 52.9449 122.64 52.6832C122.347 52.4176 121.83 52.1949 121.088 52.0152C120.185 51.8004 119.48 51.484 118.972 51.066C118.464 50.648 118.211 50.1227 118.211 49.4898C118.211 48.8219 118.494 48.2672 119.06 47.8258C119.627 47.3805 120.363 47.1578 121.269 47.1578C121.867 47.1578 122.41 47.2613 122.898 47.4684C123.39 47.6715 123.785 47.9195 124.082 48.2125V49.8004ZM129.738 47.2809C130.648 47.2809 131.355 47.5152 131.859 47.984C132.367 48.4527 132.621 49.0699 132.621 49.8355C132.621 50.609 132.367 51.2281 131.859 51.693C131.355 52.1578 130.648 52.3902 129.738 52.3902H127.928V54.9098L128.883 55.0738V55.8121H125.818V55.0738L126.773 54.9098V48.1891L125.818 48.025V47.2809H126.773H129.738ZM127.928 51.4879H129.738C130.316 51.4879 130.748 51.3336 131.033 51.025C131.322 50.7125 131.467 50.3199 131.467 49.8473C131.467 49.3746 131.322 48.9801 131.033 48.6637C130.748 48.3473 130.316 48.1891 129.738 48.1891H127.928V51.4879ZM134.041 48.025V47.2809H137.106V48.025L136.151 48.1891V54.9098L137.106 55.0738V55.8121H134.041V55.0738L134.996 54.9098V48.1891L134.041 48.025ZM142.27 47.2867C143.2 47.2867 143.913 47.4937 144.409 47.9078C144.905 48.318 145.153 48.9019 145.153 49.6598C145.153 50.0738 145.038 50.441 144.807 50.7613C144.577 51.0816 144.247 51.3336 143.817 51.5172C144.282 51.6695 144.616 51.9176 144.819 52.2613C145.026 52.6051 145.13 53.0289 145.13 53.5328V54.2184C145.13 54.4801 145.163 54.6734 145.229 54.7984C145.296 54.9234 145.405 54.9977 145.557 55.0211L145.839 55.0562V55.8121H145.218C144.768 55.8121 144.448 55.6559 144.257 55.3434C144.069 55.0309 143.975 54.6519 143.975 54.2066V53.5445C143.975 53.0797 143.841 52.7066 143.571 52.4254C143.302 52.1441 142.94 52.0035 142.487 52.0035H140.636V54.9098L141.591 55.0738V55.8121H138.526V55.0738L139.481 54.9098V48.1891L138.526 48.025V47.2867H139.481H142.27ZM140.636 51.0953H142.153C142.798 51.0953 143.266 50.9723 143.559 50.7262C143.852 50.4801 143.999 50.1207 143.999 49.648C143.999 49.1988 143.858 48.8434 143.577 48.5816C143.296 48.3199 142.86 48.1891 142.27 48.1891H140.636V51.0953ZM147.241 48.025V47.2809H150.306V48.025L149.351 48.1891V54.9098L150.306 55.0738V55.8121H147.241V55.0738L148.196 54.9098V48.1891L147.241 48.025ZM158.617 47.2809V49.1676H157.632L157.545 48.1891H155.652V54.9098L156.607 55.0738V55.8121H153.543V55.0738L154.498 54.9098V48.1891H152.599L152.517 49.1676H151.527V47.2809H158.617ZM165.932 49.8004H165.059L164.842 48.5816C164.666 48.4332 164.432 48.3102 164.139 48.2125C163.846 48.1148 163.506 48.066 163.119 48.066C162.506 48.066 162.035 48.1969 161.707 48.4586C161.379 48.7164 161.215 49.0543 161.215 49.4723C161.215 49.8434 161.381 50.1539 161.713 50.4039C162.049 50.65 162.59 50.8668 163.336 51.0543C164.234 51.2769 164.916 51.6051 165.381 52.0387C165.85 52.4723 166.084 53.0094 166.084 53.65C166.084 54.3375 165.803 54.8902 165.24 55.3082C164.682 55.7262 163.949 55.9352 163.043 55.9352C162.387 55.9352 161.803 55.8277 161.291 55.6129C160.783 55.398 160.369 55.1168 160.049 54.7691V53.1812H160.916L161.139 54.4059C161.361 54.5894 161.627 54.7398 161.936 54.857C162.244 54.9742 162.613 55.0328 163.043 55.0328C163.625 55.0328 164.084 54.9098 164.42 54.6637C164.76 54.4176 164.93 54.0836 164.93 53.6617C164.93 53.2711 164.783 52.9449 164.49 52.6832C164.197 52.4176 163.68 52.1949 162.938 52.0152C162.035 51.8004 161.33 51.484 160.822 51.066C160.314 50.648 160.061 50.1227 160.061 49.4898C160.061 48.8219 160.344 48.2672 160.91 47.8258C161.477 47.3805 162.213 47.1578 163.119 47.1578C163.717 47.1578 164.26 47.2613 164.748 47.4684C165.24 47.6715 165.635 47.9195 165.932 48.2125V49.8004Z" fill="white"/>
</svg>
